<?xml version="1.0" encoding="UTF-8"?>
<svg version="1.1" xmlns="http://www.w3.org/2000/svg" width="1623" height="416">
<path d="M0 0 C0.94273696 7.25561754 1.20196825 14.40400419 1.29711914 21.71606445 C1.31677231 22.96343384 1.33642548 24.21080322 1.35667419 25.49597168 C1.40942866 28.90527795 1.45831263 32.31459563 1.50525212 35.723984 C1.55587663 39.34558654 1.61097375 42.96712165 1.66539001 46.58866882 C1.75660799 52.70579986 1.84433023 58.82297349 1.92993164 64.94018555 C2.01652342 71.12578918 2.10655655 77.31132888 2.20043945 83.49682617 C2.72884041 118.33206114 3.17671334 153.15956013 3 188 C3.87060059 187.9550515 3.87060059 187.9550515 4.75878906 187.90919495 C21.51538731 187.06865196 38.22484602 186.87627681 55 186.9375 C57.44400948 186.94253417 59.88801999 186.94709363 62.33203125 186.95117188 C68.22137719 186.96200463 74.1106835 186.97858519 80 187 C76.91506918 192.03373819 73.28321372 195.96608973 69.07421875 200.0859375 C68.07549492 201.07685898 68.07549492 201.07685898 67.05659485 202.08779907 C64.93829893 204.18838326 62.81342422 206.28213874 60.6875 208.375 C58.57314013 210.46154889 56.46033622 212.54961383 54.35054016 214.64077759 C53.04217668 215.93709164 51.73115268 217.23072848 50.41691589 218.52108765 C46.65803861 222.2395355 43.13567931 226.09130864 39.6809845 230.09292603 C37.19573531 232.91243688 34.55328964 235.55273574 31.875 238.1875 C31.32440918 238.7343042 30.77381836 239.2811084 30.20654297 239.84448242 C27.8922054 242.14274364 25.5718335 244.43487516 23.25195312 246.72753906 C15.65558685 254.15558868 15.65558685 254.15558868 8.5 262 C2.85188059 268.63584473 -3.55501391 274.60716179 -9.74804688 280.72753906 C-17.3300138 288.13891286 -17.3300138 288.13891286 -24.46875 295.96875 C-30.29971567 302.81941656 -36.92879827 308.98028405 -43.32080078 315.30029297 C-51.96695965 323.85110941 -51.96695965 323.85110941 -60.10351562 332.88085938 C-65.3635692 338.75846816 -71.13984381 344.18513056 -76.74804688 349.72753906 C-85.40653631 358.28892307 -85.40653631 358.28892307 -93.55957031 367.328125 C-95.7215902 369.83753384 -98.0291671 372.16138504 -100.375 374.5 C-101.22835938 375.3559375 -102.08171875 376.211875 -102.9609375 377.09375 C-105 379 -105 379 -106 379 C-106.78996939 360.00806014 -107.25298468 341.02523759 -107.53515625 322.01953125 C-107.57799353 319.25558071 -107.62170454 316.49164416 -107.66539001 313.72770691 C-107.76682288 307.27939254 -107.86537092 300.83103773 -107.96278423 294.38266152 C-108.07414828 287.02059134 -108.188878 279.65857469 -108.30383885 272.29655993 C-108.53953998 257.19776184 -108.77118211 242.0989041 -109 227 C-110.26851791 228.25490437 -111.53505761 229.51180857 -112.80078125 230.76953125 C-113.85906128 231.81911011 -113.85906128 231.81911011 -114.9387207 232.88989258 C-116.7717809 234.76637478 -118.4959611 236.68399931 -120.1875 238.6875 C-125.9733212 245.40482529 -132.44673341 251.50015162 -138.74804688 257.72753906 C-146.34441315 265.15558868 -146.34441315 265.15558868 -153.5 273 C-159.14811941 279.63584473 -165.55501391 285.60716179 -171.74804688 291.72753906 C-179.3300138 299.13891286 -179.3300138 299.13891286 -186.46875 306.96875 C-192.29971567 313.81941656 -198.92879827 319.98028405 -205.32080078 326.30029297 C-213.96695965 334.85110941 -213.96695965 334.85110941 -222.10351562 343.88085938 C-227.3635692 349.75846816 -233.13984381 355.18513056 -238.74804688 360.72753906 C-246.34441315 368.15558868 -246.34441315 368.15558868 -253.5 376 C-259.14811941 382.63584473 -265.55501391 388.60716179 -271.74804688 394.72753906 C-273.45917608 396.42038286 -275.16803419 398.11545841 -276.875 399.8125 C-277.69097656 400.62364258 -277.69097656 400.62364258 -278.5234375 401.45117188 C-282.06681376 404.9989119 -285.43625655 408.64438292 -288.6328125 412.51171875 C-290 414 -290 414 -293 416 C-293.77086016 407.21201133 -294.18262966 398.47827396 -294.29711914 389.65869141 C-294.32659889 387.76008362 -294.32659889 387.76008362 -294.35667419 385.82312012 C-294.40991423 382.3834117 -294.45814379 378.9436505 -294.50525212 375.50385332 C-294.55602965 371.84924081 -294.61102973 368.19469127 -294.66539001 364.54013062 C-294.75639118 358.37884266 -294.84416532 352.21751526 -294.92993164 346.05615234 C-295.02753983 339.04644572 -295.12989629 332.03682169 -295.23503023 325.02722418 C-295.33760224 318.18177612 -295.43680535 311.33628284 -295.53457451 304.49076462 C-295.58403219 301.03115311 -295.63511093 297.57156892 -295.68738091 294.1119988 C-296.00805545 272.06964152 -296 250.04941666 -296 228 C-321.74 228.33 -347.48 228.66 -374 229 C-369.80132902 223.40177202 -365.81453227 218.54811255 -360.87890625 213.71875 C-360.21592026 213.06096558 -359.55293427 212.40318115 -358.86985779 211.72546387 C-356.77217902 209.64541706 -354.66788564 207.57224329 -352.5625 205.5 C-350.46156771 203.42689944 -348.36221072 201.35226369 -346.26585388 199.27453613 C-344.96862757 197.98934204 -343.66874177 196.70682409 -342.36561584 195.4276123 C-338.62465996 191.72732546 -335.1217728 187.89159254 -331.68345642 183.9095459 C-329.19718954 181.08937149 -326.55412689 178.44808791 -323.875 175.8125 C-323.32440918 175.2656958 -322.77381836 174.7188916 -322.20654297 174.15551758 C-319.8922054 171.85725636 -317.5718335 169.56512484 -315.25195312 167.27246094 C-307.65558685 159.84441132 -307.65558685 159.84441132 -300.5 152 C-294.85188059 145.36415527 -288.44498609 139.39283821 -282.25195312 133.27246094 C-274.65558685 125.84441132 -274.65558685 125.84441132 -267.5 118 C-261.85188059 111.36415527 -255.44498609 105.39283821 -249.25195312 99.27246094 C-241.6699862 91.86108714 -241.6699862 91.86108714 -234.53125 84.03125 C-228.70028433 77.18058344 -222.07120173 71.01971595 -215.67919922 64.69970703 C-206.75664503 55.89238498 -206.75664503 55.89238498 -198.35595703 46.59179688 C-196.55201689 44.47409977 -194.64429641 42.47640359 -192.6875 40.5 C-191.70330078 39.49453125 -191.70330078 39.49453125 -190.69921875 38.46875 C-189 37 -189 37 -187 37 C-186.99061433 37.56557019 -186.98122866 38.13114038 -186.97155857 38.71384907 C-186.73993185 52.6626532 -186.50593916 66.61141609 -186.26950932 80.56013966 C-186.15521362 87.30643263 -186.0416887 94.0527367 -185.92993164 100.79907227 C-185.44783738 129.87112931 -184.96453416 158.93925947 -184 188 C-183.30644913 187.31055298 -182.61289825 186.62110596 -181.89833069 185.9107666 C-180.97161057 184.98953003 -180.04489044 184.06829346 -179.09008789 183.11914062 C-178.60529748 182.6371244 -178.12050707 182.15510818 -177.62102604 181.65848541 C-175.61711664 179.66612783 -173.61298316 177.6740062 -171.60641479 175.68432617 C-164.90897094 169.07091828 -164.90897094 169.07091828 -158.59765625 162.09375 C-152.90362431 155.43606013 -146.47823124 149.42569333 -140.25195312 143.27246094 C-132.6699862 135.86108714 -132.6699862 135.86108714 -125.53125 128.03125 C-119.70028433 121.18058344 -113.07120173 115.01971595 -106.67919922 108.69970703 C-98.03304035 100.14889059 -98.03304035 100.14889059 -89.89648438 91.11914062 C-84.6364308 85.24153184 -78.86015619 79.81486944 -73.25195312 74.27246094 C-65.65558685 66.84441132 -65.65558685 66.84441132 -58.5 59 C-52.85188059 52.36415527 -46.44498609 46.39283821 -40.25195312 40.27246094 C-34.58080662 34.66191724 -28.95896435 29.09384215 -23.78417969 23.015625 C-20.21674764 18.98542262 -16.36786666 15.2203784 -12.5546875 11.42431641 C-11.10296045 9.97804325 -9.6567755 8.52637682 -8.2109375 7.07421875 C-7.29828125 6.16285156 -6.385625 5.25148438 -5.4453125 4.3125 C-4.61531738 3.48363281 -3.78532227 2.65476563 -2.93017578 1.80078125 C-1 0 -1 0 0 0 Z M-185 192 C-185.02785108 196.56249479 -185.04682112 201.12494634 -185.0625 205.6875 C-185.07087891 206.98107422 -185.07925781 208.27464844 -185.08789062 209.60742188 C-185.09111328 210.85458984 -185.09433594 212.10175781 -185.09765625 213.38671875 C-185.10289307 214.53358154 -185.10812988 215.68044434 -185.11352539 216.86206055 C-185.01075807 219.70263777 -184.65316416 222.24043792 -184 225 C-167.57814826 225.08625425 -151.16847944 224.81307313 -134.75 224.5 C-132.14323229 224.45165442 -129.53646146 224.40347624 -126.9296875 224.35546875 C-120.61974626 224.23921189 -114.30988329 224.11953771 -108 224 C-108.33 213.11 -108.66 202.22 -109 191 C-120.08202875 190.97084815 -120.08202875 190.97084815 -131.1640625 190.95117188 C-135.69304598 190.94522584 -140.22200898 190.93824062 -144.75097656 190.92456055 C-148.40792819 190.91358532 -152.06485781 190.90769261 -155.72182465 190.90512276 C-157.10745337 190.90329459 -158.49308107 190.89972559 -159.87870026 190.89426994 C-168.3092419 190.86243784 -176.61144931 191.13645832 -185 192 Z " fill="#F2F2F2" transform="translate(374,0)"/>
<path d="M0 0 C19.47 0 38.94 0 59 0 C64.33938072 7.1191743 69.62257216 14.19679866 74.6875 21.5 C75.89968364 23.23962232 77.11192487 24.9792045 78.32421875 26.71875 C78.93313965 27.59402344 79.54206055 28.46929687 80.16943359 29.37109375 C83.10471551 33.58649995 86.05280754 37.7929169 89 42 C90.16673226 43.66662075 91.33339883 45.33328749 92.5 47 C93.0775 47.825 93.655 48.65 94.25 49.5 C113.5 77 113.5 77 115.25097656 79.50146484 C116.41430058 81.16330991 117.57771164 82.82509405 118.74121094 84.48681641 C121.70974716 88.72675092 124.67662944 92.96782728 127.640625 97.2109375 C128.24519531 98.07589844 128.84976563 98.94085938 129.47265625 99.83203125 C130.60084367 101.44620709 131.72850974 103.06074754 132.85546875 104.67578125 C137.85195215 111.82234063 142.93059862 118.90283806 148 126 C148.495 63.63 148.495 63.63 149 0 C164.18 0 179.36 0 195 0 C195 60.72 195 121.44 195 184 C174.87 184 154.74 184 134 184 C129.38 177.4 124.76 170.8 120 164 C115.08194098 157.17942257 115.08194098 157.17942257 110.15234375 150.3671875 C104.53085285 142.59849124 99.03534341 134.74004293 93.52050781 126.89550781 C87.35875725 118.13420526 81.14646186 109.41347501 74.86230469 100.73950195 C70.69233883 94.97678881 66.57318673 89.17991875 62.484375 83.359375 C57.69450855 76.5446379 52.84228401 69.77919761 48 63 C47.67 102.93 47.34 142.86 47 184 C31.49 184 15.98 184 0 184 C0 123.28 0 62.56 0 0 Z " fill="#F2F2F2" transform="translate(545,114)"/>
<path d="M0 0 C1.19168793 -0.00014603 2.38337585 -0.00029205 3.61117554 -0.0004425 C7.50675345 0.00024801 11.40228212 0.00799965 15.29785156 0.01586914 C18.01597059 0.0182962 20.73408958 0.01920811 23.45220947 0.02015686 C29.84794185 0.02324867 36.24365687 0.0314327 42.63938165 0.04150635 C49.92851519 0.05273474 57.21764962 0.05819479 64.50678968 0.06320179 C79.48402987 0.07361742 94.46124754 0.09193575 109.43847656 0.11352539 C109.43847656 13.97352539 109.43847656 27.83352539 109.43847656 42.11352539 C104.55627319 42.13539917 104.55627319 42.13539917 99.57543945 42.15771484 C88.80662474 42.20811211 78.03795385 42.27471647 67.26928043 42.3492403 C60.74195153 42.39391657 54.21468466 42.43317902 47.68725586 42.45996094 C41.38477832 42.48602087 35.08253981 42.52644301 28.78021049 42.57671165 C26.37897152 42.59336205 23.97769123 42.60488767 21.57640266 42.6111393 C18.20603664 42.62079995 14.83627963 42.64888409 11.46606445 42.68115234 C10.47919144 42.67971725 9.49231842 42.67828217 8.47554016 42.67680359 C2.51379618 42.75722105 -3.2016435 43.28659517 -8.56152344 46.11352539 C-12.09832879 51.36514546 -12.30800719 56.90278057 -11.56152344 63.11352539 C-10.44444355 67.2474809 -9.22552752 69.670856 -5.56152344 72.11352539 C-1.42762914 73.25737158 2.59611725 73.2501791 6.86816406 73.27124023 C7.59903732 73.27632095 8.32991058 73.28140167 9.08293152 73.28663635 C10.66523049 73.29730619 12.24754424 73.30593954 13.8298645 73.31275558 C16.34588273 73.32461565 18.86173473 73.34408996 21.37768555 73.36587524 C28.52989037 73.42722639 35.68207916 73.48131783 42.83447266 73.51489258 C47.21705771 73.53601291 51.59934011 73.57145711 55.98175049 73.61565018 C57.64003908 73.62967934 59.29838123 73.63850255 60.95672607 73.64170456 C76.34946847 73.67455086 91.89521593 74.83002302 103.75097656 85.80102539 C117.07457594 100.25283278 116.24602552 120.6014174 115.60693359 139.03881836 C114.93191285 151.35941436 111.77229015 163.26904335 103.21972656 172.51977539 C93.75634209 180.98701413 81.0835123 184.2454109 68.59182739 184.23377991 C67.44766861 184.23515457 66.30350983 184.23652924 65.12467957 184.23794556 C63.88390152 184.23435028 62.64312347 184.230755 61.36474609 184.22705078 C60.04713791 184.22719681 58.72952972 184.22734283 57.37199402 184.22749329 C53.77121074 184.22777948 50.17046097 184.22191156 46.56968546 184.21491933 C42.80206378 184.20865611 39.03444127 184.20807964 35.26681519 184.20689392 C28.1377734 184.20378935 21.008747 184.19558776 13.87971199 184.18554443 C5.76122883 184.17435613 -2.35725506 184.168866 -10.47574401 184.163849 C-27.17101424 184.1534044 -43.86626328 184.1350698 -60.56152344 184.11352539 C-60.56152344 170.25352539 -60.56152344 156.39352539 -60.56152344 142.11352539 C-56.98284424 142.10417969 -53.40416504 142.09483398 -49.71704102 142.08520508 C-37.90244345 142.05146099 -26.08801468 141.99612778 -14.27356434 141.92962265 C-7.10937439 141.88982297 0.05470558 141.85743529 7.21899414 141.8425293 C13.46382629 141.82951748 19.70841652 141.80256522 25.95311242 141.75891232 C29.2593376 141.73628629 32.56519878 141.72269457 35.87151146 141.72164154 C39.56371925 141.71928256 43.25497691 141.69228675 46.94702148 141.65942383 C48.04178299 141.66445419 49.13654449 141.66948456 50.26448059 141.67466736 C56.21086432 141.60561199 56.21086432 141.60561199 61.57466125 139.24737549 C65.40088613 134.86679642 65.83486013 130.04353796 65.69238281 124.42993164 C65.26552378 120.53566386 64.17209135 117.64266978 62.43847656 114.11352539 C59.01108296 111.65144764 55.63865134 111.85057376 51.52124023 111.82641602 C50.83273987 111.81958298 50.1442395 111.81274994 49.43487549 111.80570984 C47.94152771 111.79214065 46.4481337 111.78307528 44.95473289 111.77799988 C42.57678269 111.7696715 40.19920942 111.74912219 37.82136536 111.72546387 C32.75629246 111.67727054 27.69118052 111.64441518 22.62597656 111.61352539 C16.78892359 111.5776287 10.95205017 111.53516108 5.11516762 111.47758484 C2.79852814 111.45784694 0.48203403 111.4492594 -1.83467102 111.44128418 C-18.59866023 111.32250792 -36.16481406 110.44316438 -49.56152344 99.11352539 C-61.82787042 86.16267243 -62.97364272 68.21281688 -62.70996094 51.26977539 C-62.28428462 36.30829971 -59.81938364 22.21218421 -49.00683594 11.20336914 C-35.64436735 -0.21663197 -16.64098629 -0.05450655 0 0 Z " fill="#F2F2F2" transform="translate(1153.5615234375,113.886474609375)"/>
<path d="M0 0 C9.47259056 8.46355374 13.01874647 21.21117479 13.984375 33.48046875 C15.03593441 54.58989797 15.71309816 75.99821844 2.734375 93.85546875 C-15.37560065 111.14226369 -44.14907856 110.09667452 -67.3984375 109.734375 C-85.32555005 109.29032529 -105.82177697 107.38793282 -119.79296875 94.890625 C-131.86626357 81.83426292 -132.2830005 64.70914758 -132.390625 47.91796875 C-132.40456299 46.62866455 -132.41850098 45.33936035 -132.43286133 44.01098633 C-132.35969675 29.03885278 -130.27622823 13.35365576 -120.015625 1.66796875 C-93.9604042 -21.85650213 -27.33394052 -20.6064009 0 0 Z M-85.765625 28.23046875 C-90.18699577 34.6168932 -90.35640095 40.87960073 -90.328125 48.41796875 C-90.34423828 49.27326172 -90.36035156 50.12855469 -90.37695312 51.00976562 C-90.38231931 58.04483802 -89.29524525 63.70795763 -84.703125 69.29296875 C-76.9054263 75.63993281 -68.88542021 75.67846986 -59.265625 75.73046875 C-58.3271875 75.75109375 -57.38875 75.77171875 -56.421875 75.79296875 C-47.33015515 75.84319925 -39.11809812 74.46838914 -32.3515625 68.01953125 C-26.27660006 61.02089031 -27.51708932 49.08020923 -28.015625 40.48046875 C-29.01929369 34.7684131 -30.54094867 29.38146862 -35.015625 25.48046875 C-47.86506672 17.49371216 -74.84752212 17.31236587 -85.765625 28.23046875 Z " fill="#F2F2F2" transform="translate(1059.015625,191.51953125)"/>
<path d="M0 0 C8.85788377 8.15972545 11.22868778 16.3778139 13.56640625 28.06640625 C13.56640625 37.96640625 13.56640625 47.86640625 13.56640625 58.06640625 C-19.76359375 58.06640625 -53.09359375 58.06640625 -87.43359375 58.06640625 C-85.19232656 67.34029599 -85.19232656 67.34029599 -79.43359375 73.06640625 C-73.25000622 75.75492257 -66.62541416 76.17613479 -59.94750977 76.27172852 C-58.08637291 76.30164635 -58.08637291 76.30164635 -56.18763733 76.33216858 C-54.85425944 76.34914608 -53.5208803 76.36602513 -52.1875 76.3828125 C-50.80744348 76.40341457 -49.42739281 76.42441182 -48.04734802 76.44578552 C-44.43564627 76.50067067 -40.82389078 76.5502262 -37.21209717 76.59863281 C-33.51830335 76.64909475 -29.82458549 76.70460243 -26.13085938 76.75976562 C-18.89849671 76.8674082 -11.66608743 76.96669161 -4.43359375 77.06640625 C-4.43359375 86.96640625 -4.43359375 96.86640625 -4.43359375 107.06640625 C-13.49307613 107.13478103 -22.552381 107.18956217 -31.61206532 107.22184277 C-35.82098457 107.23735293 -40.02971485 107.2583151 -44.23852539 107.29272461 C-100.9650408 107.74414508 -100.9650408 107.74414508 -116.5625 93.0625 C-123.86279906 85.33198074 -126.89200926 77.46804472 -128.43359375 67.06640625 C-128.54574219 66.33292969 -128.65789062 65.59945312 -128.7734375 64.84375 C-131.04289368 46.71918904 -131.52358819 22.10026506 -120.62109375 6.69140625 C-109.90503613 -6.18385701 -95.29465054 -10.25195001 -79.09863281 -11.84985352 C-54.46820098 -14.04744505 -20.6219309 -16.38500128 0 0 Z M-84.43359375 22.06640625 C-88.04598555 27.14633222 -87.43359375 29.27778611 -87.43359375 36.06640625 C-67.30359375 36.06640625 -47.17359375 36.06640625 -26.43359375 36.06640625 C-26.43359375 29.35020212 -26.64339942 26.29072817 -30.43359375 21.06640625 C-41.68831969 11.76902395 -73.62045623 11.31284524 -84.43359375 22.06640625 Z " fill="#F2F2F2" transform="translate(1609.43359375,190.93359375)"/>
<path d="M0 0 C8.85788377 8.15972545 11.22868778 16.3778139 13.56640625 28.06640625 C13.56640625 37.96640625 13.56640625 47.86640625 13.56640625 58.06640625 C-19.76359375 58.06640625 -53.09359375 58.06640625 -87.43359375 58.06640625 C-85.19232656 67.34029599 -85.19232656 67.34029599 -79.43359375 73.06640625 C-73.25000622 75.75492257 -66.62541416 76.17613479 -59.94750977 76.27172852 C-58.08637291 76.30164635 -58.08637291 76.30164635 -56.18763733 76.33216858 C-54.85425944 76.34914608 -53.5208803 76.36602513 -52.1875 76.3828125 C-50.80744348 76.40341457 -49.42739281 76.42441182 -48.04734802 76.44578552 C-44.43564627 76.50067067 -40.82389078 76.5502262 -37.21209717 76.59863281 C-33.51830335 76.64909475 -29.82458549 76.70460243 -26.13085938 76.75976562 C-18.89849671 76.8674082 -11.66608743 76.96669161 -4.43359375 77.06640625 C-4.43359375 86.96640625 -4.43359375 96.86640625 -4.43359375 107.06640625 C-13.49307613 107.13478103 -22.552381 107.18956217 -31.61206532 107.22184277 C-35.82098457 107.23735293 -40.02971485 107.2583151 -44.23852539 107.29272461 C-100.9650408 107.74414508 -100.9650408 107.74414508 -116.5625 93.0625 C-129.84598388 78.9961957 -130.01672928 59.65118156 -129.52685547 41.26269531 C-128.85556816 25.45405502 -126.09044732 11.07153702 -114.24609375 -0.12109375 C-89.2971573 -20.25532316 -24.99748216 -19.86156287 0 0 Z M-84.43359375 22.06640625 C-88.04598555 27.14633222 -87.43359375 29.27778611 -87.43359375 36.06640625 C-67.30359375 36.06640625 -47.17359375 36.06640625 -26.43359375 36.06640625 C-26.43359375 29.35020212 -26.64339942 26.29072817 -30.43359375 21.06640625 C-41.68831969 11.76902395 -73.62045623 11.31284524 -84.43359375 22.06640625 Z " fill="#F2F2F2" transform="translate(895.43359375,190.93359375)"/>
<path d="M0 0 C14.85 0 29.7 0 45 0 C45 13.53 45 27.06 45 41 C58.2 41 71.4 41 85 41 C85 51.56 85 62.12 85 73 C71.8 73 58.6 73 45 73 C45.07403353 79.17541772 45.15689536 85.34939607 45.26245117 91.52416992 C45.29567422 93.62402861 45.3237143 95.72397603 45.34643555 97.82397461 C45.38002936 100.84527344 45.43234834 103.86576101 45.48828125 106.88671875 C45.49467117 107.82335861 45.5010611 108.75999847 45.50764465 109.72502136 C45.61631307 114.55909334 45.7023071 118.17463875 49 122 C52.20061197 124.27812332 55.21924658 124.30056608 59.078125 124.4140625 C60.12387695 124.44967285 61.16962891 124.4852832 62.24707031 124.52197266 C64.22852051 124.57297119 64.22852051 124.57297119 66.25 124.625 C70.4575 124.74875 74.665 124.8725 79 125 C79 135.89 79 146.78 79 158 C73.75655512 158.06970606 68.51478327 158.12917625 63.27124023 158.16479492 C61.49579354 158.17967699 59.7203822 158.1999892 57.94506836 158.22631836 C41.14841641 158.46878347 22.47162192 158.51101745 8.8515625 147.21875 C1.51434533 139.66482178 -0.45589829 130.30047193 -0.45318604 120.06318665 C-0.42221832 118.27813972 -0.42221832 118.27813972 -0.390625 116.45703125 C-0.38496521 115.20742111 -0.37930542 113.95781097 -0.37347412 112.67033386 C-0.35502214 109.3870762 -0.31924271 106.10464155 -0.2746582 102.82165527 C-0.2333527 99.45607444 -0.21538876 96.09037193 -0.1953125 92.72460938 C-0.15144136 86.14938311 -0.08251489 79.57485024 0 73 C-7.26 73 -14.52 73 -22 73 C-22 62.44 -22 51.88 -22 41 C-14.74 41 -7.48 41 0 41 C0 27.47 0 13.94 0 0 Z " fill="#F2F2F2" transform="translate(1383,140)"/>
<path d="M0 0 C15.18 0 30.36 0 46 0 C46 38.61 46 77.22 46 117 C30.82 117 15.64 117 0 117 C0 78.39 0 39.78 0 0 Z " fill="#F2F2F2" transform="translate(1294,181)"/>
<path d="M0 0 C14.19 0 28.38 0 43 0 C43 12.21 43 24.42 43 37 C28.81 37 14.62 37 0 37 C0 24.79 0 12.58 0 0 Z " fill="#F2F2F2" transform="translate(1295,126)"/>
</svg>
