<?xml version="1.0" encoding="UTF-8"?>
<svg version="1.1" xmlns="http://www.w3.org/2000/svg" width="600" height="400">
<path d="M0 0 C198 0 396 0 600 0 C600 132 600 264 600 400 C402 400 204 400 0 400 C0 268 0 136 0 0 Z " fill="#001A29" transform="translate(0,0)"/>
<path d="M0 0 C0.33 0 0.66 0 1 0 C1.94315053 23.5084307 2.28500304 47.01103908 2.53222656 70.5355835 C2.59259051 76.19725902 2.65801035 81.85887837 2.72252655 87.52050781 C2.81877062 96.01363609 2.90882139 104.50680908 3 113 C17.85 113 32.7 113 48 113 C43.50060771 119.74908843 43.50060771 119.74908843 40.90307617 122.30810547 C40.03648628 123.16962723 40.03648628 123.16962723 39.15238953 124.04855347 C38.53878067 124.6487027 37.92517181 125.24885193 37.29296875 125.8671875 C36.64934891 126.50560577 36.00572906 127.14402405 35.34260559 127.80178833 C33.29564074 129.83104831 31.24209965 131.85347287 29.1875 133.875 C27.14446487 135.89021404 25.10299125 137.906948 23.06452942 139.92678833 C21.8006855 141.1785932 20.53418192 142.42772124 19.26445007 143.67355347 C15.5633018 147.3335359 12.10401217 151.13324799 8.70210266 155.07180786 C6.14020976 157.97399577 3.41396138 160.69151378 0.65625 163.40625 C-0.2029303 164.25975037 -0.2029303 164.25975037 -1.07946777 165.13049316 C-3.48939282 167.52432686 -5.90534478 169.91204243 -8.32080078 172.30029297 C-16.96695965 180.85110941 -16.96695965 180.85110941 -25.10351562 189.88085938 C-30.3635692 195.75846816 -36.13984381 201.18513056 -41.74804688 206.72753906 C-43.45917554 208.42038232 -45.16791073 210.11558379 -46.875 211.8125 C-47.41898438 212.35253662 -47.96296875 212.89257324 -48.5234375 213.44897461 C-52.08898698 217.01507297 -55.45408626 220.68949498 -58.6328125 224.609375 C-60 226 -60 226 -63 227 C-63.0154612 225.66267822 -63.0154612 225.66267822 -63.03123474 224.29833984 C-63.12990039 215.82677051 -63.23250174 207.35525943 -63.33933926 198.88378906 C-63.39410926 194.53029548 -63.44744652 190.1767949 -63.49731445 185.82324219 C-63.54564704 181.60861384 -63.59799763 177.39405156 -63.65294075 173.17950439 C-63.67305757 171.58507978 -63.6918139 169.9906373 -63.70907402 168.3961792 C-63.82385266 157.90081986 -64.24419332 147.46920287 -65 137 C-67.1907786 139.16343185 -69.37762406 141.33061964 -71.5625 143.5 C-72.17158203 144.10070312 -72.78066406 144.70140625 -73.40820312 145.3203125 C-76.44539245 148.34143204 -79.37540491 151.3934968 -82.15234375 154.65625 C-87.95544369 161.37966176 -94.43533484 167.48888678 -100.74804688 173.72753906 C-108.34441315 181.15558868 -108.34441315 181.15558868 -115.5 189 C-121.14811941 195.63584473 -127.55501391 201.60716179 -133.74804688 207.72753906 C-139.40897696 213.32797552 -145.01918708 218.88595061 -150.18457031 224.953125 C-153.89829631 229.14030612 -157.90772639 233.05503564 -161.87255859 237.00292969 C-163.39671027 238.52163266 -164.91533044 240.04572512 -166.43359375 241.5703125 C-167.40072046 242.53677987 -168.36815653 243.50293779 -169.3359375 244.46875 C-170.64377197 245.77489258 -170.64377197 245.77489258 -171.97802734 247.10742188 C-174 249 -174 249 -175 249 C-175.26511519 238.679102 -175.5261155 228.35810811 -175.78230286 218.03698444 C-175.90146721 213.2409956 -176.02188669 208.44504612 -176.14550781 203.64916992 C-176.71744418 181.42383436 -177.11783661 159.2342949 -177 137 C-192.18 137 -207.36 137 -223 137 C-216.2617692 129.13873073 -216.2617692 129.13873073 -213.59765625 126.53515625 C-213.01693359 125.96216797 -212.43621094 125.38917969 -211.83789062 124.79882812 C-210.65824609 123.64513836 -209.47855887 122.49149223 -208.29882812 121.33789062 C-205.37303956 118.45098297 -202.56489381 115.53470693 -199.90234375 112.40234375 C-193.90669934 105.45556793 -187.19998677 99.14705047 -180.67919922 92.69970703 C-172.03304035 84.14889059 -172.03304035 84.14889059 -163.89648438 75.11914062 C-158.6364308 69.24153184 -152.86015619 63.81486944 -147.25195312 58.27246094 C-141.53003493 52.6116881 -135.85285658 46.99321864 -130.63232422 40.859375 C-127.45227796 37.23699506 -123.98969873 33.88643608 -120.5625 30.5 C-119.83095703 29.77296875 -119.09941406 29.0459375 -118.34570312 28.296875 C-116.56610176 26.52890501 -114.78419082 24.76333622 -113 23 C-112.34 23.33 -111.68 23.66 -111 24 C-110.9845388 25.58400604 -110.9845388 25.58400604 -110.96876526 27.20001221 C-110.87105188 37.1469375 -110.76831968 47.09379995 -110.66066074 57.04062271 C-110.6054726 62.15450139 -110.55205911 67.26838583 -110.50268555 72.38232422 C-110.45498147 77.31660688 -110.40263639 82.2508204 -110.34705925 87.18502045 C-110.3266631 89.06847158 -110.30794551 90.95194166 -110.29092598 92.83542633 C-110.26682135 95.4714086 -110.23677501 98.10726067 -110.20532227 100.74316406 C-110.1995668 101.52359573 -110.19381134 102.3040274 -110.18788147 103.10810852 C-110.14087263 106.56913428 -109.92332693 109.66876536 -109 113 C-107.97561545 112.00363813 -106.95577287 111.00260713 -105.9375 110 C-105.36902344 109.443125 -104.80054688 108.88625 -104.21484375 108.3125 C-102.41990637 106.43842076 -100.74648854 104.53650598 -99.06640625 102.5625 C-93.17041227 95.78026222 -86.63986401 89.58542985 -80.25195312 83.27246094 C-72.65558685 75.84441132 -72.65558685 75.84441132 -65.5 68 C-59.85188059 61.36415527 -53.44498609 55.39283821 -47.25195312 49.27246094 C-39.66278901 41.85274719 -39.66278901 41.85274719 -32.515625 34.015625 C-27.31479075 27.90416379 -21.45272133 22.38695683 -15.75 16.75 C-13.40853627 14.435216 -11.07047417 12.11707141 -8.734375 9.796875 C-8.20309998 9.27389832 -7.67182495 8.75092163 -7.12445068 8.21209717 C-4.50476944 5.60980202 -2.18496978 2.97177155 0 0 Z " fill="#0071A8" transform="translate(387,75)"/>
<path d="M0 0 C15.18 0 30.36 0 46 0 C46 6.6 46 13.2 46 20 C30.82 20 15.64 20 0 20 C0 13.4 0 6.8 0 0 Z " fill="#001A29" transform="translate(277,190)"/>
</svg>
